ISO-10303-21;
HEADER;
FILE_DESCRIPTION(('FreeCAD Model'),'2;1');
FILE_NAME('Open CASCADE Shape Model','2026-05-09T21:48:08',(''),(''),
  'Open CASCADE STEP processor 7.8','FreeCAD','Unknown');
FILE_SCHEMA(('AUTOMOTIVE_DESIGN { 1 0 10303 214 1 1 1 1 }'));
ENDSEC;
DATA;
#1 = APPLICATION_PROTOCOL_DEFINITION('international standard',
  'automotive_design',2000,#2);
#2 = APPLICATION_CONTEXT(
  'core data for automotive mechanical design processes');
#3 = SHAPE_DEFINITION_REPRESENTATION(#4,#10);
#4 = PRODUCT_DEFINITION_SHAPE('','',#5);
#5 = PRODUCT_DEFINITION('design','',#6,#9);
#6 = PRODUCT_DEFINITION_FORMATION('','',#7);
#7 = PRODUCT('TFT_1.28IN_ROUND_240X240_12P003',
  'TFT_1.28IN_ROUND_240X240_12P003','',(#8));
#8 = PRODUCT_CONTEXT('',#2,'mechanical');
#9 = PRODUCT_DEFINITION_CONTEXT('part definition',#2,'design');
#10 = SHAPE_REPRESENTATION('',(#11,#15,#19,#23),#27);
#11 = AXIS2_PLACEMENT_3D('',#12,#13,#14);
#12 = CARTESIAN_POINT('',(0.,0.,0.));
#13 = DIRECTION('',(0.,0.,1.));
#14 = DIRECTION('',(1.,0.,-0.));
#15 = AXIS2_PLACEMENT_3D('',#16,#17,#18);
#16 = CARTESIAN_POINT('',(0.,0.,0.));
#17 = DIRECTION('',(0.,0.,-1.));
#18 = DIRECTION('',(-1.,0.,0.));
#19 = AXIS2_PLACEMENT_3D('',#20,#21,#22);
#20 = CARTESIAN_POINT('',(0.,0.,0.));
#21 = DIRECTION('',(0.,0.,-1.));
#22 = DIRECTION('',(-1.,0.,0.));
#23 = AXIS2_PLACEMENT_3D('',#24,#25,#26);
#24 = CARTESIAN_POINT('',(0.,0.,0.));
#25 = DIRECTION('',(0.,0.,-1.));
#26 = DIRECTION('',(-1.,0.,0.));
#27 = ( GEOMETRIC_REPRESENTATION_CONTEXT(3) 
GLOBAL_UNCERTAINTY_ASSIGNED_CONTEXT((#31)) GLOBAL_UNIT_ASSIGNED_CONTEXT(
(#28,#29,#30)) REPRESENTATION_CONTEXT('Context #1',
  '3D Context with UNIT and UNCERTAINTY') );
#28 = ( LENGTH_UNIT() NAMED_UNIT(*) SI_UNIT(.MILLI.,.METRE.) );
#29 = ( NAMED_UNIT(*) PLANE_ANGLE_UNIT() SI_UNIT($,.RADIAN.) );
#30 = ( NAMED_UNIT(*) SI_UNIT($,.STERADIAN.) SOLID_ANGLE_UNIT() );
#31 = UNCERTAINTY_MEASURE_WITH_UNIT(LENGTH_MEASURE(1.E-07),#28,
  'distance_accuracy_value','confusion accuracy');
#32 = PRODUCT_RELATED_PRODUCT_CATEGORY('part',$,(#7));
#33 = SHAPE_DEFINITION_REPRESENTATION(#34,#40);
#34 = PRODUCT_DEFINITION_SHAPE('','',#35);
#35 = PRODUCT_DEFINITION('design','',#36,#39);
#36 = PRODUCT_DEFINITION_FORMATION('','',#37);
#37 = PRODUCT('TFT_1.28IN_ROUND_240X240_12P',
  'TFT_1.28IN_ROUND_240X240_12P','',(#38));
#38 = PRODUCT_CONTEXT('',#2,'mechanical');
#39 = PRODUCT_DEFINITION_CONTEXT('part definition',#2,'design');
#40 = ADVANCED_BREP_SHAPE_REPRESENTATION('',(#11,#41),#304);
#41 = MANIFOLD_SOLID_BREP('',#42);
#42 = CLOSED_SHELL('',(#43,#76,#85,#125,#158,#189,#220,#251,#273,#290));
#43 = ADVANCED_FACE('',(#44),#71,.T.);
#44 = FACE_BOUND('',#45,.T.);
#45 = EDGE_LOOP('',(#46,#55,#63,#70));
#46 = ORIENTED_EDGE('',*,*,#47,.F.);
#47 = EDGE_CURVE('',#48,#48,#50,.T.);
#48 = VERTEX_POINT('',#49);
#49 = CARTESIAN_POINT('',(-16.20662467894,2.223679291633E-02,1.73));
#50 = CIRCLE('',#51,16.2);
#51 = AXIS2_PLACEMENT_3D('',#52,#53,#54);
#52 = CARTESIAN_POINT('',(-6.624678947386E-03,2.223679291633E-02,1.73));
#53 = DIRECTION('',(2.601292593602E-18,-3.185664648401E-34,1.));
#54 = DIRECTION('',(1.,-1.22510096022E-16,-2.601292593602E-18));
#55 = ORIENTED_EDGE('',*,*,#56,.T.);
#56 = EDGE_CURVE('',#48,#57,#59,.T.);
#57 = VERTEX_POINT('',#58);
#58 = CARTESIAN_POINT('',(-16.20662467894,2.223679291633E-02,1.63));
#59 = LINE('',#60,#61);
#60 = CARTESIAN_POINT('',(-16.20662467894,2.223679291633E-02,1.63));
#61 = VECTOR('',#62,1.);
#62 = DIRECTION('',(-2.601292593602E-18,3.185664648401E-34,-1.));
#63 = ORIENTED_EDGE('',*,*,#64,.F.);
#64 = EDGE_CURVE('',#57,#57,#65,.T.);
#65 = CIRCLE('',#66,16.2);
#66 = AXIS2_PLACEMENT_3D('',#67,#68,#69);
#67 = CARTESIAN_POINT('',(-6.624678947386E-03,2.223679291633E-02,1.63));
#68 = DIRECTION('',(-2.601292593602E-18,3.185664648401E-34,-1.));
#69 = DIRECTION('',(1.,-1.22510096022E-16,-2.601292593602E-18));
#70 = ORIENTED_EDGE('',*,*,#56,.F.);
#71 = CYLINDRICAL_SURFACE('',#72,16.2);
#72 = AXIS2_PLACEMENT_3D('',#73,#74,#75);
#73 = CARTESIAN_POINT('',(-6.624678947386E-03,2.223679291633E-02,1.63));
#74 = DIRECTION('',(2.601292593602E-18,-3.185664648401E-34,1.));
#75 = DIRECTION('',(1.,-1.22510096022E-16,-2.601292593602E-18));
#76 = ADVANCED_FACE('',(#77),#80,.T.);
#77 = FACE_BOUND('',#78,.T.);
#78 = EDGE_LOOP('',(#79));
#79 = ORIENTED_EDGE('',*,*,#47,.T.);
#80 = PLANE('',#81);
#81 = AXIS2_PLACEMENT_3D('',#82,#83,#84);
#82 = CARTESIAN_POINT('',(-6.624678947386E-03,2.223679291633E-02,1.73));
#83 = DIRECTION('',(2.601292593602E-18,-3.185664648401E-34,1.));
#84 = DIRECTION('',(1.,-1.22510096022E-16,-2.601292593602E-18));
#85 = ADVANCED_FACE('',(#86),#120,.T.);
#86 = FACE_BOUND('',#87,.T.);
#87 = EDGE_LOOP('',(#88,#98,#106,#114));
#88 = ORIENTED_EDGE('',*,*,#89,.F.);
#89 = EDGE_CURVE('',#90,#92,#94,.T.);
#90 = VERTEX_POINT('',#91);
#91 = CARTESIAN_POINT('',(-6.606624678947,-20.27776320708,0.13));
#92 = VERTEX_POINT('',#93);
#93 = CARTESIAN_POINT('',(-8.506624678947,-15.61713659606,0.13));
#94 = LINE('',#95,#96);
#95 = CARTESIAN_POINT('',(-6.606624678947,-20.27776320708,0.13));
#96 = VECTOR('',#97,1.);
#97 = DIRECTION('',(-0.377505825789,0.926007209203,9.820031086659E-19));
#98 = ORIENTED_EDGE('',*,*,#99,.T.);
#99 = EDGE_CURVE('',#90,#100,#102,.T.);
#100 = VERTEX_POINT('',#101);
#101 = CARTESIAN_POINT('',(-6.606624678947,-20.27776320708,1.63));
#102 = LINE('',#103,#104);
#103 = CARTESIAN_POINT('',(-6.606624678947,-20.27776320708,0.13));
#104 = VECTOR('',#105,1.);
#105 = DIRECTION('',(2.601292593602E-18,-3.185664648401E-34,1.));
#106 = ORIENTED_EDGE('',*,*,#107,.F.);
#107 = EDGE_CURVE('',#108,#100,#110,.T.);
#108 = VERTEX_POINT('',#109);
#109 = CARTESIAN_POINT('',(-8.506624678947,-15.61713659606,1.63));
#110 = LINE('',#111,#112);
#111 = CARTESIAN_POINT('',(-6.606624678947,-20.27776320708,1.63));
#112 = VECTOR('',#113,1.);
#113 = DIRECTION('',(0.377505825789,-0.926007209203,-9.820031086659E-19)
  );
#114 = ORIENTED_EDGE('',*,*,#115,.F.);
#115 = EDGE_CURVE('',#92,#108,#116,.T.);
#116 = LINE('',#117,#118);
#117 = CARTESIAN_POINT('',(-8.506624678947,-15.61713659606,0.13));
#118 = VECTOR('',#119,1.);
#119 = DIRECTION('',(2.601292593602E-18,-3.185664648401E-34,1.));
#120 = PLANE('',#121);
#121 = AXIS2_PLACEMENT_3D('',#122,#123,#124);
#122 = CARTESIAN_POINT('',(-8.506624678947,-15.61713659606,0.13));
#123 = DIRECTION('',(-0.926007209203,-0.377505825789,2.408815694921E-18)
  );
#124 = DIRECTION('',(0.377505825789,-0.926007209203,-9.820031086659E-19)
  );
#125 = ADVANCED_FACE('',(#126),#153,.T.);
#126 = FACE_BOUND('',#127,.T.);
#127 = EDGE_LOOP('',(#128,#137,#138,#147));
#128 = ORIENTED_EDGE('',*,*,#129,.T.);
#129 = EDGE_CURVE('',#130,#92,#132,.T.);
#130 = VERTEX_POINT('',#131);
#131 = CARTESIAN_POINT('',(8.493375321053,-15.61713659606,0.13));
#132 = CIRCLE('',#133,17.8);
#133 = AXIS2_PLACEMENT_3D('',#134,#135,#136);
#134 = CARTESIAN_POINT('',(-6.624678947386E-03,2.223679291633E-02,0.13)
  );
#135 = DIRECTION('',(2.601292593602E-18,-3.185664648401E-34,1.));
#136 = DIRECTION('',(1.,-1.22510096022E-16,-2.601292593602E-18));
#137 = ORIENTED_EDGE('',*,*,#115,.T.);
#138 = ORIENTED_EDGE('',*,*,#139,.F.);
#139 = EDGE_CURVE('',#140,#108,#142,.T.);
#140 = VERTEX_POINT('',#141);
#141 = CARTESIAN_POINT('',(8.493375321053,-15.61713659606,1.63));
#142 = CIRCLE('',#143,17.8);
#143 = AXIS2_PLACEMENT_3D('',#144,#145,#146);
#144 = CARTESIAN_POINT('',(-6.624678947386E-03,2.223679291633E-02,1.63)
  );
#145 = DIRECTION('',(2.601292593602E-18,-3.185664648401E-34,1.));
#146 = DIRECTION('',(1.,-1.22510096022E-16,-2.601292593602E-18));
#147 = ORIENTED_EDGE('',*,*,#148,.F.);
#148 = EDGE_CURVE('',#130,#140,#149,.T.);
#149 = LINE('',#150,#151);
#150 = CARTESIAN_POINT('',(8.493375321053,-15.61713659606,0.13));
#151 = VECTOR('',#152,1.);
#152 = DIRECTION('',(2.601292593602E-18,-3.185664648401E-34,1.));
#153 = CYLINDRICAL_SURFACE('',#154,17.8);
#154 = AXIS2_PLACEMENT_3D('',#155,#156,#157);
#155 = CARTESIAN_POINT('',(-6.624678947386E-03,2.223679291633E-02,0.13)
  );
#156 = DIRECTION('',(2.601292593602E-18,-3.185664648401E-34,1.));
#157 = DIRECTION('',(1.837424359794E-16,1.,-1.594013730035E-34));
#158 = ADVANCED_FACE('',(#159),#184,.T.);
#159 = FACE_BOUND('',#160,.T.);
#160 = EDGE_LOOP('',(#161,#169,#170,#178));
#161 = ORIENTED_EDGE('',*,*,#162,.T.);
#162 = EDGE_CURVE('',#163,#130,#165,.T.);
#163 = VERTEX_POINT('',#164);
#164 = CARTESIAN_POINT('',(6.593375321053,-20.27776320708,0.13));
#165 = LINE('',#166,#167);
#166 = CARTESIAN_POINT('',(6.593375321053,-20.27776320708,0.13));
#167 = VECTOR('',#168,1.);
#168 = DIRECTION('',(0.377505825789,0.926007209203,-9.820031086659E-19)
  );
#169 = ORIENTED_EDGE('',*,*,#148,.T.);
#170 = ORIENTED_EDGE('',*,*,#171,.F.);
#171 = EDGE_CURVE('',#172,#140,#174,.T.);
#172 = VERTEX_POINT('',#173);
#173 = CARTESIAN_POINT('',(6.593375321053,-20.27776320708,1.63));
#174 = LINE('',#175,#176);
#175 = CARTESIAN_POINT('',(6.593375321053,-20.27776320708,1.63));
#176 = VECTOR('',#177,1.);
#177 = DIRECTION('',(0.377505825789,0.926007209203,-9.820031086659E-19)
  );
#178 = ORIENTED_EDGE('',*,*,#179,.F.);
#179 = EDGE_CURVE('',#163,#172,#180,.T.);
#180 = LINE('',#181,#182);
#181 = CARTESIAN_POINT('',(6.593375321053,-20.27776320708,0.13));
#182 = VECTOR('',#183,1.);
#183 = DIRECTION('',(2.601292593602E-18,-3.185664648401E-34,1.));
#184 = PLANE('',#185);
#185 = AXIS2_PLACEMENT_3D('',#186,#187,#188);
#186 = CARTESIAN_POINT('',(6.593375321053,-20.27776320708,0.13));
#187 = DIRECTION('',(0.926007209203,-0.377505825789,-2.408815694921E-18)
  );
#188 = DIRECTION('',(0.377505825789,0.926007209203,-9.820031086659E-19)
  );
#189 = ADVANCED_FACE('',(#190),#215,.T.);
#190 = FACE_BOUND('',#191,.T.);
#191 = EDGE_LOOP('',(#192,#200,#201,#209));
#192 = ORIENTED_EDGE('',*,*,#193,.T.);
#193 = EDGE_CURVE('',#194,#163,#196,.T.);
#194 = VERTEX_POINT('',#195);
#195 = CARTESIAN_POINT('',(6.593375321053,-20.77776320708,0.13));
#196 = LINE('',#197,#198);
#197 = CARTESIAN_POINT('',(6.593375321053,-20.77776320708,0.13));
#198 = VECTOR('',#199,1.);
#199 = DIRECTION('',(1.22510096022E-16,1.,-1.181405834781E-37));
#200 = ORIENTED_EDGE('',*,*,#179,.T.);
#201 = ORIENTED_EDGE('',*,*,#202,.F.);
#202 = EDGE_CURVE('',#203,#172,#205,.T.);
#203 = VERTEX_POINT('',#204);
#204 = CARTESIAN_POINT('',(6.593375321053,-20.77776320708,1.63));
#205 = LINE('',#206,#207);
#206 = CARTESIAN_POINT('',(6.593375321053,-20.77776320708,1.63));
#207 = VECTOR('',#208,1.);
#208 = DIRECTION('',(1.22510096022E-16,1.,-1.181405834781E-37));
#209 = ORIENTED_EDGE('',*,*,#210,.F.);
#210 = EDGE_CURVE('',#194,#203,#211,.T.);
#211 = LINE('',#212,#213);
#212 = CARTESIAN_POINT('',(6.593375321053,-20.77776320708,0.13));
#213 = VECTOR('',#214,1.);
#214 = DIRECTION('',(2.601292593602E-18,-3.185664648401E-34,1.));
#215 = PLANE('',#216);
#216 = AXIS2_PLACEMENT_3D('',#217,#218,#219);
#217 = CARTESIAN_POINT('',(6.593375321053,-20.77776320708,0.13));
#218 = DIRECTION('',(1.,-1.22510096022E-16,-2.601292593602E-18));
#219 = DIRECTION('',(1.22510096022E-16,1.,-1.181405834781E-37));
#220 = ADVANCED_FACE('',(#221),#246,.T.);
#221 = FACE_BOUND('',#222,.T.);
#222 = EDGE_LOOP('',(#223,#231,#232,#240));
#223 = ORIENTED_EDGE('',*,*,#224,.T.);
#224 = EDGE_CURVE('',#225,#194,#227,.T.);
#225 = VERTEX_POINT('',#226);
#226 = CARTESIAN_POINT('',(-6.606624678947,-20.77776320708,0.13));
#227 = LINE('',#228,#229);
#228 = CARTESIAN_POINT('',(-6.606624678947,-20.77776320708,0.13));
#229 = VECTOR('',#230,1.);
#230 = DIRECTION('',(1.,-1.22510096022E-16,-2.601292593602E-18));
#231 = ORIENTED_EDGE('',*,*,#210,.T.);
#232 = ORIENTED_EDGE('',*,*,#233,.F.);
#233 = EDGE_CURVE('',#234,#203,#236,.T.);
#234 = VERTEX_POINT('',#235);
#235 = CARTESIAN_POINT('',(-6.606624678947,-20.77776320708,1.63));
#236 = LINE('',#237,#238);
#237 = CARTESIAN_POINT('',(-6.606624678947,-20.77776320708,1.63));
#238 = VECTOR('',#239,1.);
#239 = DIRECTION('',(1.,-1.22510096022E-16,-2.601292593602E-18));
#240 = ORIENTED_EDGE('',*,*,#241,.F.);
#241 = EDGE_CURVE('',#225,#234,#242,.T.);
#242 = LINE('',#243,#244);
#243 = CARTESIAN_POINT('',(-6.606624678947,-20.77776320708,0.13));
#244 = VECTOR('',#245,1.);
#245 = DIRECTION('',(2.601292593602E-18,-3.185664648401E-34,1.));
#246 = PLANE('',#247);
#247 = AXIS2_PLACEMENT_3D('',#248,#249,#250);
#248 = CARTESIAN_POINT('',(-6.606624678947,-20.77776320708,0.13));
#249 = DIRECTION('',(-1.22510096022E-16,-1.,1.181405834781E-37));
#250 = DIRECTION('',(1.,-1.22510096022E-16,-2.601292593602E-18));
#251 = ADVANCED_FACE('',(#252),#268,.T.);
#252 = FACE_BOUND('',#253,.T.);
#253 = EDGE_LOOP('',(#254,#260,#261,#267));
#254 = ORIENTED_EDGE('',*,*,#255,.T.);
#255 = EDGE_CURVE('',#90,#225,#256,.T.);
#256 = LINE('',#257,#258);
#257 = CARTESIAN_POINT('',(-6.606624678947,-20.27776320708,0.13));
#258 = VECTOR('',#259,1.);
#259 = DIRECTION('',(-1.22510096022E-16,-1.,1.181405834781E-37));
#260 = ORIENTED_EDGE('',*,*,#241,.T.);
#261 = ORIENTED_EDGE('',*,*,#262,.F.);
#262 = EDGE_CURVE('',#100,#234,#263,.T.);
#263 = LINE('',#264,#265);
#264 = CARTESIAN_POINT('',(-6.606624678947,-20.27776320708,1.63));
#265 = VECTOR('',#266,1.);
#266 = DIRECTION('',(-1.22510096022E-16,-1.,1.181405834781E-37));
#267 = ORIENTED_EDGE('',*,*,#99,.F.);
#268 = PLANE('',#269);
#269 = AXIS2_PLACEMENT_3D('',#270,#271,#272);
#270 = CARTESIAN_POINT('',(-6.606624678947,-20.27776320708,0.13));
#271 = DIRECTION('',(-1.,1.22510096022E-16,2.601292593602E-18));
#272 = DIRECTION('',(-1.22510096022E-16,-1.,1.181405834781E-37));
#273 = ADVANCED_FACE('',(#274,#282),#285,.T.);
#274 = FACE_BOUND('',#275,.T.);
#275 = EDGE_LOOP('',(#276,#277,#278,#279,#280,#281));
#276 = ORIENTED_EDGE('',*,*,#262,.T.);
#277 = ORIENTED_EDGE('',*,*,#233,.T.);
#278 = ORIENTED_EDGE('',*,*,#202,.T.);
#279 = ORIENTED_EDGE('',*,*,#171,.T.);
#280 = ORIENTED_EDGE('',*,*,#139,.T.);
#281 = ORIENTED_EDGE('',*,*,#107,.T.);
#282 = FACE_BOUND('',#283,.T.);
#283 = EDGE_LOOP('',(#284));
#284 = ORIENTED_EDGE('',*,*,#64,.T.);
#285 = PLANE('',#286);
#286 = AXIS2_PLACEMENT_3D('',#287,#288,#289);
#287 = CARTESIAN_POINT('',(-6.624678947386E-03,-1.477763207084,1.63));
#288 = DIRECTION('',(2.601292593602E-18,-3.185664648401E-34,1.));
#289 = DIRECTION('',(1.,-1.22510096022E-16,-2.601292593602E-18));
#290 = ADVANCED_FACE('',(#291),#299,.F.);
#291 = FACE_BOUND('',#292,.T.);
#292 = EDGE_LOOP('',(#293,#294,#295,#296,#297,#298));
#293 = ORIENTED_EDGE('',*,*,#255,.F.);
#294 = ORIENTED_EDGE('',*,*,#89,.T.);
#295 = ORIENTED_EDGE('',*,*,#129,.F.);
#296 = ORIENTED_EDGE('',*,*,#162,.F.);
#297 = ORIENTED_EDGE('',*,*,#193,.F.);
#298 = ORIENTED_EDGE('',*,*,#224,.F.);
#299 = PLANE('',#300);
#300 = AXIS2_PLACEMENT_3D('',#301,#302,#303);
#301 = CARTESIAN_POINT('',(-6.624678947386E-03,-1.477763207084,0.13));
#302 = DIRECTION('',(2.601292593602E-18,-3.185664648401E-34,1.));
#303 = DIRECTION('',(1.,-1.22510096022E-16,-2.601292593602E-18));
#304 = ( GEOMETRIC_REPRESENTATION_CONTEXT(3) 
GLOBAL_UNCERTAINTY_ASSIGNED_CONTEXT((#308)) GLOBAL_UNIT_ASSIGNED_CONTEXT
((#305,#306,#307)) REPRESENTATION_CONTEXT('Context #1',
  '3D Context with UNIT and UNCERTAINTY') );
#305 = ( LENGTH_UNIT() NAMED_UNIT(*) SI_UNIT(.MILLI.,.METRE.) );
#306 = ( NAMED_UNIT(*) PLANE_ANGLE_UNIT() SI_UNIT($,.RADIAN.) );
#307 = ( NAMED_UNIT(*) SI_UNIT($,.STERADIAN.) SOLID_ANGLE_UNIT() );
#308 = UNCERTAINTY_MEASURE_WITH_UNIT(LENGTH_MEASURE(1.E-07),#305,
  'distance_accuracy_value','confusion accuracy');
#309 = CONTEXT_DEPENDENT_SHAPE_REPRESENTATION(#310,#312);
#310 = ( REPRESENTATION_RELATIONSHIP('','',#40,#10) 
REPRESENTATION_RELATIONSHIP_WITH_TRANSFORMATION(#311) 
SHAPE_REPRESENTATION_RELATIONSHIP() );
#311 = ITEM_DEFINED_TRANSFORMATION('','',#11,#15);
#312 = PRODUCT_DEFINITION_SHAPE('Placement','Placement of an item',#313
  );
#313 = NEXT_ASSEMBLY_USAGE_OCCURRENCE('4','TFT_1.28IN_ROUND_240X240_12P'
  ,'',#5,#35,$);
#314 = PRODUCT_RELATED_PRODUCT_CATEGORY('part',$,(#37));
#315 = SHAPE_DEFINITION_REPRESENTATION(#316,#322);
#316 = PRODUCT_DEFINITION_SHAPE('','',#317);
#317 = PRODUCT_DEFINITION('design','',#318,#321);
#318 = PRODUCT_DEFINITION_FORMATION('','',#319);
#319 = PRODUCT('TFT_1.28IN_ROUND_240X240_12P001',
  'TFT_1.28IN_ROUND_240X240_12P001','',(#320));
#320 = PRODUCT_CONTEXT('',#2,'mechanical');
#321 = PRODUCT_DEFINITION_CONTEXT('part definition',#2,'design');
#322 = ADVANCED_BREP_SHAPE_REPRESENTATION('',(#11,#323),#377);
#323 = MANIFOLD_SOLID_BREP('',#324);
#324 = CLOSED_SHELL('',(#325,#359,#368));
#325 = ADVANCED_FACE('',(#326),#354,.T.);
#326 = FACE_BOUND('',#327,.T.);
#327 = EDGE_LOOP('',(#328,#337,#346,#353));
#328 = ORIENTED_EDGE('',*,*,#329,.T.);
#329 = EDGE_CURVE('',#330,#330,#332,.T.);
#330 = VERTEX_POINT('',#331);
#331 = CARTESIAN_POINT('',(16.034752371893,2.223679291632E-02,1.7554));
#332 = CIRCLE('',#333,16.041377050841);
#333 = AXIS2_PLACEMENT_3D('',#334,#335,#336);
#334 = CARTESIAN_POINT('',(-6.624678947386E-03,2.223679291633E-02,1.7554
    ));
#335 = DIRECTION('',(-2.601292593602E-18,1.040834085586E-17,-1.));
#336 = DIRECTION('',(-1.,1.211131322692E-16,2.601292593602E-18));
#337 = ORIENTED_EDGE('',*,*,#338,.T.);
#338 = EDGE_CURVE('',#330,#339,#341,.T.);
#339 = VERTEX_POINT('',#340);
#340 = CARTESIAN_POINT('',(16.193375321053,2.223679291632E-02,1.73));
#341 = CIRCLE('',#342,0.508);
#342 = AXIS2_PLACEMENT_3D('',#343,#344,#345);
#343 = CARTESIAN_POINT('',(16.034752371893,2.223679291633E-02,1.2474));
#344 = DIRECTION('',(-3.406684903972E-18,1.,1.040834085586E-17));
#345 = DIRECTION('',(1.,3.406684903972E-18,0.));
#346 = ORIENTED_EDGE('',*,*,#347,.T.);
#347 = EDGE_CURVE('',#339,#339,#348,.T.);
#348 = CIRCLE('',#349,16.2);
#349 = AXIS2_PLACEMENT_3D('',#350,#351,#352);
#350 = CARTESIAN_POINT('',(-6.624678947386E-03,2.223679291633E-02,1.73)
  );
#351 = DIRECTION('',(2.601292593602E-18,-1.040834085586E-17,1.));
#352 = DIRECTION('',(1.,-1.22510096022E-16,-2.601292593602E-18));
#353 = ORIENTED_EDGE('',*,*,#338,.F.);
#354 = TOROIDAL_SURFACE('',#355,16.041377050841,0.508);
#355 = AXIS2_PLACEMENT_3D('',#356,#357,#358);
#356 = CARTESIAN_POINT('',(-6.624678947386E-03,2.223679291633E-02,1.2474
    ));
#357 = DIRECTION('',(2.601292593602E-18,-1.040834085586E-17,1.));
#358 = DIRECTION('',(-1.,1.190767400281E-16,2.601292593602E-18));
#359 = ADVANCED_FACE('',(#360),#363,.T.);
#360 = FACE_BOUND('',#361,.T.);
#361 = EDGE_LOOP('',(#362));
#362 = ORIENTED_EDGE('',*,*,#329,.F.);
#363 = PLANE('',#364);
#364 = AXIS2_PLACEMENT_3D('',#365,#366,#367);
#365 = CARTESIAN_POINT('',(-6.624678947386E-03,2.223679291633E-02,1.7554
    ));
#366 = DIRECTION('',(2.601292593602E-18,-1.040834085586E-17,1.));
#367 = DIRECTION('',(1.,-1.22510096022E-16,-2.601292593602E-18));
#368 = ADVANCED_FACE('',(#369),#372,.F.);
#369 = FACE_BOUND('',#370,.T.);
#370 = EDGE_LOOP('',(#371));
#371 = ORIENTED_EDGE('',*,*,#347,.F.);
#372 = PLANE('',#373);
#373 = AXIS2_PLACEMENT_3D('',#374,#375,#376);
#374 = CARTESIAN_POINT('',(-6.624678947386E-03,2.223679291633E-02,1.73)
  );
#375 = DIRECTION('',(2.601292593602E-18,-1.040834085586E-17,1.));
#376 = DIRECTION('',(1.,-1.22510096022E-16,-2.601292593602E-18));
#377 = ( GEOMETRIC_REPRESENTATION_CONTEXT(3) 
GLOBAL_UNCERTAINTY_ASSIGNED_CONTEXT((#381)) GLOBAL_UNIT_ASSIGNED_CONTEXT
((#378,#379,#380)) REPRESENTATION_CONTEXT('Context #1',
  '3D Context with UNIT and UNCERTAINTY') );
#378 = ( LENGTH_UNIT() NAMED_UNIT(*) SI_UNIT(.MILLI.,.METRE.) );
#379 = ( NAMED_UNIT(*) PLANE_ANGLE_UNIT() SI_UNIT($,.RADIAN.) );
#380 = ( NAMED_UNIT(*) SI_UNIT($,.STERADIAN.) SOLID_ANGLE_UNIT() );
#381 = UNCERTAINTY_MEASURE_WITH_UNIT(LENGTH_MEASURE(1.E-07),#378,
  'distance_accuracy_value','confusion accuracy');
#382 = CONTEXT_DEPENDENT_SHAPE_REPRESENTATION(#383,#385);
#383 = ( REPRESENTATION_RELATIONSHIP('','',#322,#10) 
REPRESENTATION_RELATIONSHIP_WITH_TRANSFORMATION(#384) 
SHAPE_REPRESENTATION_RELATIONSHIP() );
#384 = ITEM_DEFINED_TRANSFORMATION('','',#11,#19);
#385 = PRODUCT_DEFINITION_SHAPE('Placement','Placement of an item',#386
  );
#386 = NEXT_ASSEMBLY_USAGE_OCCURRENCE('5',
  'TFT_1.28IN_ROUND_240X240_12P001','',#5,#317,$);
#387 = PRODUCT_RELATED_PRODUCT_CATEGORY('part',$,(#319));
#388 = SHAPE_DEFINITION_REPRESENTATION(#389,#395);
#389 = PRODUCT_DEFINITION_SHAPE('','',#390);
#390 = PRODUCT_DEFINITION('design','',#391,#394);
#391 = PRODUCT_DEFINITION_FORMATION('','',#392);
#392 = PRODUCT('TFT_1.28IN_ROUND_240X240_12P002',
  'TFT_1.28IN_ROUND_240X240_12P002','',(#393));
#393 = PRODUCT_CONTEXT('',#2,'mechanical');
#394 = PRODUCT_DEFINITION_CONTEXT('part definition',#2,'design');
#395 = ADVANCED_BREP_SHAPE_REPRESENTATION('',(#11,#396),#756);
#396 = MANIFOLD_SOLID_BREP('',#397);
#397 = CLOSED_SHELL('',(#398,#440,#482,#515,#548,#581,#614,#636,#673,
    #704,#732,#744));
#398 = ADVANCED_FACE('',(#399),#435,.T.);
#399 = FACE_BOUND('',#400,.T.);
#400 = EDGE_LOOP('',(#401,#411,#420,#428));
#401 = ORIENTED_EDGE('',*,*,#402,.T.);
#402 = EDGE_CURVE('',#403,#405,#407,.T.);
#403 = VERTEX_POINT('',#404);
#404 = CARTESIAN_POINT('',(-5.706624678947,-21.10372110194,
    1.467908983756));
#405 = VERTEX_POINT('',#406);
#406 = CARTESIAN_POINT('',(5.693375321053,-21.10372110194,1.467908983756
    ));
#407 = LINE('',#408,#409);
#408 = CARTESIAN_POINT('',(-6.62467894739E-03,-21.10372110194,
    1.467908983756));
#409 = VECTOR('',#410,1.);
#410 = DIRECTION('',(1.,-1.225555017542E-16,-2.602085153605E-18));
#411 = ORIENTED_EDGE('',*,*,#412,.T.);
#412 = EDGE_CURVE('',#405,#413,#415,.T.);
#413 = VERTEX_POINT('',#414);
#414 = CARTESIAN_POINT('',(5.693375321053,-20.80404132023,1.63));
#415 = CIRCLE('',#416,0.28672299708);
#416 = AXIS2_PLACEMENT_3D('',#417,#418,#419);
#417 = CARTESIAN_POINT('',(5.693375321053,-20.84415981939,1.346097581764
    ));
#418 = DIRECTION('',(-1.,1.225100891055E-16,2.601688843424E-18));
#419 = DIRECTION('',(-1.097992166958E-16,-0.905268447924,0.424840013644)
  );
#420 = ORIENTED_EDGE('',*,*,#421,.F.);
#421 = EDGE_CURVE('',#422,#413,#424,.T.);
#422 = VERTEX_POINT('',#423);
#423 = CARTESIAN_POINT('',(-5.706624678947,-20.80404132023,1.63));
#424 = LINE('',#425,#426);
#425 = CARTESIAN_POINT('',(-6.62467894739E-03,-20.80404132023,1.63));
#426 = VECTOR('',#427,1.);
#427 = DIRECTION('',(1.,-1.225488290937E-16,-2.554865429525E-18));
#428 = ORIENTED_EDGE('',*,*,#429,.F.);
#429 = EDGE_CURVE('',#403,#422,#430,.T.);
#430 = CIRCLE('',#431,0.28672299708);
#431 = AXIS2_PLACEMENT_3D('',#432,#433,#434);
#432 = CARTESIAN_POINT('',(-5.706624678947,-20.84415981939,
    1.346097581764));
#433 = DIRECTION('',(-1.,1.225100891055E-16,2.601688843424E-18));
#434 = DIRECTION('',(-1.097992166958E-16,-0.905268447924,0.424840013644)
  );
#435 = CYLINDRICAL_SURFACE('',#436,0.28672299708);
#436 = AXIS2_PLACEMENT_3D('',#437,#438,#439);
#437 = CARTESIAN_POINT('',(-6.62467894739E-03,-20.84415981939,
    1.346097581764));
#438 = DIRECTION('',(-1.,1.225555017542E-16,2.602085153605E-18));
#439 = DIRECTION('',(-1.098401589654E-16,-0.905268447924,0.424840013644)
  );
#440 = ADVANCED_FACE('',(#441),#477,.F.);
#441 = FACE_BOUND('',#442,.F.);
#442 = EDGE_LOOP('',(#443,#454,#462,#471));
#443 = ORIENTED_EDGE('',*,*,#444,.T.);
#444 = EDGE_CURVE('',#445,#447,#449,.T.);
#445 = VERTEX_POINT('',#446);
#446 = CARTESIAN_POINT('',(5.693375321053,-20.98272999168,1.419946657801
    ));
#447 = VERTEX_POINT('',#448);
#448 = CARTESIAN_POINT('',(5.693375321053,-20.81431327865,1.500255172187
    ));
#449 = CIRCLE('',#450,0.157020312951);
#450 = AXIS2_PLACEMENT_3D('',#451,#452,#453);
#451 = CARTESIAN_POINT('',(5.693375321053,-20.84415981939,1.346097581764
    ));
#452 = DIRECTION('',(-1.,1.225100891055E-16,2.601688843424E-18));
#453 = DIRECTION('',(-1.068913411367E-16,-0.882498383062,0.470315430209)
  );
#454 = ORIENTED_EDGE('',*,*,#455,.T.);
#455 = EDGE_CURVE('',#447,#456,#458,.T.);
#456 = VERTEX_POINT('',#457);
#457 = CARTESIAN_POINT('',(-5.706624678947,-20.81431327865,
    1.500255172187));
#458 = LINE('',#459,#460);
#459 = CARTESIAN_POINT('',(-6.62467894739E-03,-20.81431327865,
    1.500255172187));
#460 = VECTOR('',#461,1.);
#461 = DIRECTION('',(-1.,1.225488290937E-16,2.554865429525E-18));
#462 = ORIENTED_EDGE('',*,*,#463,.F.);
#463 = EDGE_CURVE('',#464,#456,#466,.T.);
#464 = VERTEX_POINT('',#465);
#465 = CARTESIAN_POINT('',(-5.706624678947,-20.98272999168,
    1.419946657801));
#466 = CIRCLE('',#467,0.157020312951);
#467 = AXIS2_PLACEMENT_3D('',#468,#469,#470);
#468 = CARTESIAN_POINT('',(-5.706624678947,-20.84415981939,
    1.346097581764));
#469 = DIRECTION('',(-1.,1.225100891055E-16,2.601688843424E-18));
#470 = DIRECTION('',(-1.068913411367E-16,-0.882498383062,0.470315430209)
  );
#471 = ORIENTED_EDGE('',*,*,#472,.F.);
#472 = EDGE_CURVE('',#445,#464,#473,.T.);
#473 = LINE('',#474,#475);
#474 = CARTESIAN_POINT('',(-6.62467894739E-03,-20.98272999168,
    1.419946657801));
#475 = VECTOR('',#476,1.);
#476 = DIRECTION('',(-1.,1.225555017542E-16,2.602085153605E-18));
#477 = CYLINDRICAL_SURFACE('',#478,0.157020312951);
#478 = AXIS2_PLACEMENT_3D('',#479,#480,#481);
#479 = CARTESIAN_POINT('',(-6.62467894739E-03,-20.84415981939,
    1.346097581764));
#480 = DIRECTION('',(-1.,1.225555017542E-16,2.602085153605E-18));
#481 = DIRECTION('',(-1.098401589654E-16,-0.905268447924,0.424840013644)
  );
#482 = ADVANCED_FACE('',(#483),#510,.T.);
#483 = FACE_BOUND('',#484,.T.);
#484 = EDGE_LOOP('',(#485,#495,#502,#503));
#485 = ORIENTED_EDGE('',*,*,#486,.T.);
#486 = EDGE_CURVE('',#487,#489,#491,.T.);
#487 = VERTEX_POINT('',#488);
#488 = CARTESIAN_POINT('',(-5.706624678947,-21.09092682326,0.19088453633
    ));
#489 = VERTEX_POINT('',#490);
#490 = CARTESIAN_POINT('',(5.693375321053,-21.09092682326,0.19088453633)
  );
#491 = LINE('',#492,#493);
#492 = CARTESIAN_POINT('',(-6.624678947389E-03,-21.09092682326,
    0.19088453633));
#493 = VECTOR('',#494,1.);
#494 = DIRECTION('',(1.,-1.225555017542E-16,-2.602085153605E-18));
#495 = ORIENTED_EDGE('',*,*,#496,.T.);
#496 = EDGE_CURVE('',#489,#405,#497,.T.);
#497 = CIRCLE('',#498,1.993546155236);
#498 = AXIS2_PLACEMENT_3D('',#499,#500,#501);
#499 = CARTESIAN_POINT('',(5.693375321053,-19.2089041117,0.848316499508)
  );
#500 = DIRECTION('',(-1.,1.225100891055E-16,2.601688843424E-18));
#501 = DIRECTION('',(-1.165145852712E-16,-0.944057756888,-0.329780156557
    ));
#502 = ORIENTED_EDGE('',*,*,#402,.F.);
#503 = ORIENTED_EDGE('',*,*,#504,.F.);
#504 = EDGE_CURVE('',#487,#403,#505,.T.);
#505 = CIRCLE('',#506,1.993546155236);
#506 = AXIS2_PLACEMENT_3D('',#507,#508,#509);
#507 = CARTESIAN_POINT('',(-5.706624678947,-19.2089041117,0.848316499508
    ));
#508 = DIRECTION('',(-1.,1.225100891055E-16,2.601688843424E-18));
#509 = DIRECTION('',(-1.165145852712E-16,-0.944057756888,-0.329780156557
    ));
#510 = CYLINDRICAL_SURFACE('',#511,1.993546155236);
#511 = AXIS2_PLACEMENT_3D('',#512,#513,#514);
#512 = CARTESIAN_POINT('',(-6.62467894739E-03,-19.2089041117,
    0.848316499508));
#513 = DIRECTION('',(-1.,1.225555017542E-16,2.602085153605E-18));
#514 = DIRECTION('',(-1.165575881297E-16,-0.944057756888,-0.329780156557
    ));
#515 = ADVANCED_FACE('',(#516),#543,.F.);
#516 = FACE_BOUND('',#517,.F.);
#517 = EDGE_LOOP('',(#518,#527,#528,#537));
#518 = ORIENTED_EDGE('',*,*,#519,.T.);
#519 = EDGE_CURVE('',#520,#445,#522,.T.);
#520 = VERTEX_POINT('',#521);
#521 = CARTESIAN_POINT('',(5.693375321053,-20.97055098261,0.24018855855)
  );
#522 = CIRCLE('',#523,1.863657503502);
#523 = AXIS2_PLACEMENT_3D('',#524,#525,#526);
#524 = CARTESIAN_POINT('',(5.693375321053,-19.2089041117,0.848316499508)
  );
#525 = DIRECTION('',(-1.,1.225100891055E-16,2.601688843424E-18));
#526 = DIRECTION('',(-1.166532339758E-16,-0.945263208288,-0.326308852252
    ));
#527 = ORIENTED_EDGE('',*,*,#472,.T.);
#528 = ORIENTED_EDGE('',*,*,#529,.F.);
#529 = EDGE_CURVE('',#530,#464,#532,.T.);
#530 = VERTEX_POINT('',#531);
#531 = CARTESIAN_POINT('',(-5.706624678947,-20.97055098261,0.24018855855
    ));
#532 = CIRCLE('',#533,1.863657503502);
#533 = AXIS2_PLACEMENT_3D('',#534,#535,#536);
#534 = CARTESIAN_POINT('',(-5.706624678947,-19.2089041117,0.848316499508
    ));
#535 = DIRECTION('',(-1.,1.225100891055E-16,2.601688843424E-18));
#536 = DIRECTION('',(-1.166532339758E-16,-0.945263208288,-0.326308852252
    ));
#537 = ORIENTED_EDGE('',*,*,#538,.F.);
#538 = EDGE_CURVE('',#520,#530,#539,.T.);
#539 = LINE('',#540,#541);
#540 = CARTESIAN_POINT('',(-6.624678947389E-03,-20.97055098261,
    0.24018855855));
#541 = VECTOR('',#542,1.);
#542 = DIRECTION('',(-1.,1.225555017542E-16,2.602085153605E-18));
#543 = CYLINDRICAL_SURFACE('',#544,1.863657503502);
#544 = AXIS2_PLACEMENT_3D('',#545,#546,#547);
#545 = CARTESIAN_POINT('',(-6.62467894739E-03,-19.2089041117,
    0.848316499508));
#546 = DIRECTION('',(-1.,1.225555017542E-16,2.602085153605E-18));
#547 = DIRECTION('',(-1.165575881297E-16,-0.944057756888,-0.329780156557
    ));
#548 = ADVANCED_FACE('',(#549),#576,.T.);
#549 = FACE_BOUND('',#550,.T.);
#550 = EDGE_LOOP('',(#551,#561,#568,#569));
#551 = ORIENTED_EDGE('',*,*,#552,.F.);
#552 = EDGE_CURVE('',#553,#555,#557,.T.);
#553 = VERTEX_POINT('',#554);
#554 = CARTESIAN_POINT('',(5.693375321053,-20.80404132023,
    2.433867560489E-18));
#555 = VERTEX_POINT('',#556);
#556 = CARTESIAN_POINT('',(-5.706624678947,-20.80404132023,
    2.433867560489E-18));
#557 = LINE('',#558,#559);
#558 = CARTESIAN_POINT('',(-5.706624678947,-20.80404132023,
    2.433867560489E-18));
#559 = VECTOR('',#560,1.);
#560 = DIRECTION('',(-1.,1.225555017542E-16,2.602085153605E-18));
#561 = ORIENTED_EDGE('',*,*,#562,.T.);
#562 = EDGE_CURVE('',#553,#489,#563,.T.);
#563 = CIRCLE('',#564,0.333842842882);
#564 = AXIS2_PLACEMENT_3D('',#565,#566,#567);
#565 = CARTESIAN_POINT('',(5.693375321053,-20.78908296057,0.333507557965
    ));
#566 = DIRECTION('',(-1.,1.225100891055E-16,2.601688843424E-18));
#567 = DIRECTION('',(-8.088335350831E-18,-4.480659082561E-02,
    -0.99899568038));
#568 = ORIENTED_EDGE('',*,*,#486,.F.);
#569 = ORIENTED_EDGE('',*,*,#570,.F.);
#570 = EDGE_CURVE('',#555,#487,#571,.T.);
#571 = CIRCLE('',#572,0.333842842882);
#572 = AXIS2_PLACEMENT_3D('',#573,#574,#575);
#573 = CARTESIAN_POINT('',(-5.706624678947,-20.78908296057,
    0.333507557965));
#574 = DIRECTION('',(-1.,6.638543672969E-15,-4.117526652336E-16));
#575 = DIRECTION('',(1.138886239207E-16,-4.480659082561E-02,
    -0.99899568038));
#576 = CYLINDRICAL_SURFACE('',#577,0.333842842882);
#577 = AXIS2_PLACEMENT_3D('',#578,#579,#580);
#578 = CARTESIAN_POINT('',(-6.624678947389E-03,-20.78908296057,
    0.333507557965));
#579 = DIRECTION('',(-1.,1.225555017542E-16,2.602085153605E-18));
#580 = DIRECTION('',(-8.090766048964E-18,-4.480659082564E-02,
    -0.99899568038));
#581 = ADVANCED_FACE('',(#582),#609,.F.);
#582 = FACE_BOUND('',#583,.F.);
#583 = EDGE_LOOP('',(#584,#593,#594,#603));
#584 = ORIENTED_EDGE('',*,*,#585,.T.);
#585 = EDGE_CURVE('',#586,#520,#588,.T.);
#586 = VERTEX_POINT('',#587);
#587 = CARTESIAN_POINT('',(5.693375321053,-20.80404132023,0.13));
#588 = CIRCLE('',#589,0.204056557534);
#589 = AXIS2_PLACEMENT_3D('',#590,#591,#592);
#590 = CARTESIAN_POINT('',(5.693375321053,-20.78908296057,0.333507557965
    ));
#591 = DIRECTION('',(-1.,1.225100891055E-16,2.601688843424E-18));
#592 = DIRECTION('',(-1.157528749188E-17,-7.330496918035E-02,
    -0.997309571544));
#593 = ORIENTED_EDGE('',*,*,#538,.T.);
#594 = ORIENTED_EDGE('',*,*,#595,.F.);
#595 = EDGE_CURVE('',#596,#530,#598,.T.);
#596 = VERTEX_POINT('',#597);
#597 = CARTESIAN_POINT('',(-5.706624678947,-20.80404132023,0.13));
#598 = CIRCLE('',#599,0.204056557534);
#599 = AXIS2_PLACEMENT_3D('',#600,#601,#602);
#600 = CARTESIAN_POINT('',(-5.706624678947,-20.78908296057,
    0.333507557965));
#601 = DIRECTION('',(-1.,1.075924778497E-14,-9.793239208137E-16));
#602 = DIRECTION('',(1.879827925888E-16,-7.330496918035E-02,
    -0.997309571544));
#603 = ORIENTED_EDGE('',*,*,#604,.T.);
#604 = EDGE_CURVE('',#596,#586,#605,.T.);
#605 = LINE('',#606,#607);
#606 = CARTESIAN_POINT('',(-5.706624678947,-20.80404132023,0.13));
#607 = VECTOR('',#608,1.);
#608 = DIRECTION('',(1.,-1.225555017542E-16,-2.602085153605E-18));
#609 = CYLINDRICAL_SURFACE('',#610,0.204056557534);
#610 = AXIS2_PLACEMENT_3D('',#611,#612,#613);
#611 = CARTESIAN_POINT('',(-6.624678947389E-03,-20.78908296057,
    0.333507557965));
#612 = DIRECTION('',(-1.,1.225555017542E-16,2.602085153605E-18));
#613 = DIRECTION('',(-8.090766048964E-18,-4.480659082564E-02,
    -0.99899568038));
#614 = ADVANCED_FACE('',(#615),#631,.T.);
#615 = FACE_BOUND('',#616,.T.);
#616 = EDGE_LOOP('',(#617,#618,#624,#625));
#617 = ORIENTED_EDGE('',*,*,#455,.T.);
#618 = ORIENTED_EDGE('',*,*,#619,.T.);
#619 = EDGE_CURVE('',#456,#422,#620,.T.);
#620 = LINE('',#621,#622);
#621 = CARTESIAN_POINT('',(-5.706624678947,-20.82678034413,1.3427840067)
  );
#622 = VECTOR('',#623,1.);
#623 = DIRECTION('',(1.221887935607E-17,7.892350709418E-02,
    0.996880674919));
#624 = ORIENTED_EDGE('',*,*,#421,.T.);
#625 = ORIENTED_EDGE('',*,*,#626,.T.);
#626 = EDGE_CURVE('',#413,#447,#627,.T.);
#627 = LINE('',#628,#629);
#628 = CARTESIAN_POINT('',(5.693375321053,-20.82308140127,1.389505253531
    ));
#629 = VECTOR('',#630,1.);
#630 = DIRECTION('',(-1.221887935607E-17,-7.892350709418E-02,
    -0.996880674919));
#631 = PLANE('',#632);
#632 = AXIS2_PLACEMENT_3D('',#633,#634,#635);
#633 = CARTESIAN_POINT('',(5.693375321053,-20.80404132023,1.63));
#634 = DIRECTION('',(1.219649205176E-16,0.996880674919,
    -7.892350709418E-02));
#635 = DIRECTION('',(1.226094992645E-17,7.892350709418E-02,
    0.996880674919));
#636 = ADVANCED_FACE('',(#637),#668,.T.);
#637 = FACE_BOUND('',#638,.T.);
#638 = EDGE_LOOP('',(#639,#647,#648,#649,#650,#651,#652,#653,#654,#662)
  );
#639 = ORIENTED_EDGE('',*,*,#640,.F.);
#640 = EDGE_CURVE('',#586,#641,#643,.T.);
#641 = VERTEX_POINT('',#642);
#642 = CARTESIAN_POINT('',(5.693375321053,-10.06404132023,0.13));
#643 = LINE('',#644,#645);
#644 = CARTESIAN_POINT('',(5.693375321053,-20.80404132023,0.13));
#645 = VECTOR('',#646,1.);
#646 = DIRECTION('',(1.225555017542E-16,1.,-1.006139616067E-16));
#647 = ORIENTED_EDGE('',*,*,#585,.T.);
#648 = ORIENTED_EDGE('',*,*,#519,.T.);
#649 = ORIENTED_EDGE('',*,*,#444,.T.);
#650 = ORIENTED_EDGE('',*,*,#626,.F.);
#651 = ORIENTED_EDGE('',*,*,#412,.F.);
#652 = ORIENTED_EDGE('',*,*,#496,.F.);
#653 = ORIENTED_EDGE('',*,*,#562,.F.);
#654 = ORIENTED_EDGE('',*,*,#655,.F.);
#655 = EDGE_CURVE('',#656,#553,#658,.T.);
#656 = VERTEX_POINT('',#657);
#657 = CARTESIAN_POINT('',(5.693375321053,-10.06404132023,
    -9.989573354066E-15));
#658 = LINE('',#659,#660);
#659 = CARTESIAN_POINT('',(5.693375321053,-20.80404132023,
    2.433867560489E-18));
#660 = VECTOR('',#661,1.);
#661 = DIRECTION('',(-1.225555017542E-16,-1.,1.006139616067E-16));
#662 = ORIENTED_EDGE('',*,*,#663,.F.);
#663 = EDGE_CURVE('',#641,#656,#664,.T.);
#664 = LINE('',#665,#666);
#665 = CARTESIAN_POINT('',(5.693375321053,-10.06404132023,0.13));
#666 = VECTOR('',#667,1.);
#667 = DIRECTION('',(-2.602085153605E-18,-1.006139616067E-16,-1.));
#668 = PLANE('',#669);
#669 = AXIS2_PLACEMENT_3D('',#670,#671,#672);
#670 = CARTESIAN_POINT('',(5.693375321053,-10.06404132023,0.13));
#671 = DIRECTION('',(1.,-1.225555017542E-16,-2.602085153605E-18));
#672 = DIRECTION('',(-1.225555017542E-16,-1.,1.019150042136E-16));
#673 = ADVANCED_FACE('',(#674),#699,.T.);
#674 = FACE_BOUND('',#675,.T.);
#675 = EDGE_LOOP('',(#676,#684,#685,#693));
#676 = ORIENTED_EDGE('',*,*,#677,.F.);
#677 = EDGE_CURVE('',#641,#678,#680,.T.);
#678 = VERTEX_POINT('',#679);
#679 = CARTESIAN_POINT('',(-5.706624678947,-10.06404132023,0.13));
#680 = LINE('',#681,#682);
#681 = CARTESIAN_POINT('',(5.693375321053,-10.06404132023,0.13));
#682 = VECTOR('',#683,1.);
#683 = DIRECTION('',(-1.,1.225555017542E-16,2.602085153605E-18));
#684 = ORIENTED_EDGE('',*,*,#663,.T.);
#685 = ORIENTED_EDGE('',*,*,#686,.F.);
#686 = EDGE_CURVE('',#687,#656,#689,.T.);
#687 = VERTEX_POINT('',#688);
#688 = CARTESIAN_POINT('',(-5.706624678947,-10.06404132023,
    -9.989573354066E-15));
#689 = LINE('',#690,#691);
#690 = CARTESIAN_POINT('',(5.693375321053,-10.06404132023,
    -9.989573354066E-15));
#691 = VECTOR('',#692,1.);
#692 = DIRECTION('',(1.,-1.225555017542E-16,-2.602085153605E-18));
#693 = ORIENTED_EDGE('',*,*,#694,.F.);
#694 = EDGE_CURVE('',#678,#687,#695,.T.);
#695 = LINE('',#696,#697);
#696 = CARTESIAN_POINT('',(-5.706624678947,-10.06404132023,0.13));
#697 = VECTOR('',#698,1.);
#698 = DIRECTION('',(-2.602085153605E-18,-1.006139616067E-16,-1.));
#699 = PLANE('',#700);
#700 = AXIS2_PLACEMENT_3D('',#701,#702,#703);
#701 = CARTESIAN_POINT('',(-5.706624678947,-10.06404132023,0.13));
#702 = DIRECTION('',(1.225555017542E-16,1.,-1.006139616067E-16));
#703 = DIRECTION('',(1.,-1.225555017542E-16,-2.602085153605E-18));
#704 = ADVANCED_FACE('',(#705),#727,.T.);
#705 = FACE_BOUND('',#706,.T.);
#706 = EDGE_LOOP('',(#707,#713,#714,#720,#721,#722,#723,#724,#725,#726)
  );
#707 = ORIENTED_EDGE('',*,*,#708,.F.);
#708 = EDGE_CURVE('',#678,#596,#709,.T.);
#709 = LINE('',#710,#711);
#710 = CARTESIAN_POINT('',(-5.706624678947,-10.06404132023,0.13));
#711 = VECTOR('',#712,1.);
#712 = DIRECTION('',(-1.225555017542E-16,-1.,1.006139616067E-16));
#713 = ORIENTED_EDGE('',*,*,#694,.T.);
#714 = ORIENTED_EDGE('',*,*,#715,.F.);
#715 = EDGE_CURVE('',#555,#687,#716,.T.);
#716 = LINE('',#717,#718);
#717 = CARTESIAN_POINT('',(-5.706624678947,-10.06404132023,
    -9.989573354066E-15));
#718 = VECTOR('',#719,1.);
#719 = DIRECTION('',(1.225555017542E-16,1.,-1.006139616067E-16));
#720 = ORIENTED_EDGE('',*,*,#570,.T.);
#721 = ORIENTED_EDGE('',*,*,#504,.T.);
#722 = ORIENTED_EDGE('',*,*,#429,.T.);
#723 = ORIENTED_EDGE('',*,*,#619,.F.);
#724 = ORIENTED_EDGE('',*,*,#463,.F.);
#725 = ORIENTED_EDGE('',*,*,#529,.F.);
#726 = ORIENTED_EDGE('',*,*,#595,.F.);
#727 = PLANE('',#728);
#728 = AXIS2_PLACEMENT_3D('',#729,#730,#731);
#729 = CARTESIAN_POINT('',(-5.706624678947,-20.80404132023,0.13));
#730 = DIRECTION('',(-1.,1.225555017542E-16,2.602085153605E-18));
#731 = DIRECTION('',(1.225555017542E-16,1.,-1.019150042136E-16));
#732 = ADVANCED_FACE('',(#733),#739,.T.);
#733 = FACE_BOUND('',#734,.T.);
#734 = EDGE_LOOP('',(#735,#736,#737,#738));
#735 = ORIENTED_EDGE('',*,*,#708,.T.);
#736 = ORIENTED_EDGE('',*,*,#604,.T.);
#737 = ORIENTED_EDGE('',*,*,#640,.T.);
#738 = ORIENTED_EDGE('',*,*,#677,.T.);
#739 = PLANE('',#740);
#740 = AXIS2_PLACEMENT_3D('',#741,#742,#743);
#741 = CARTESIAN_POINT('',(-6.624678947388E-03,-15.43404132023,0.13));
#742 = DIRECTION('',(2.602085153605E-18,1.006139616067E-16,1.));
#743 = DIRECTION('',(1.,-1.225555017542E-16,-2.602085153605E-18));
#744 = ADVANCED_FACE('',(#745),#751,.T.);
#745 = FACE_BOUND('',#746,.T.);
#746 = EDGE_LOOP('',(#747,#748,#749,#750));
#747 = ORIENTED_EDGE('',*,*,#715,.T.);
#748 = ORIENTED_EDGE('',*,*,#686,.T.);
#749 = ORIENTED_EDGE('',*,*,#655,.T.);
#750 = ORIENTED_EDGE('',*,*,#552,.T.);
#751 = PLANE('',#752);
#752 = AXIS2_PLACEMENT_3D('',#753,#754,#755);
#753 = CARTESIAN_POINT('',(-6.624678947388E-03,-15.43404132023,
    -9.989573354066E-15));
#754 = DIRECTION('',(-2.602085153605E-18,-1.006139616067E-16,-1.));
#755 = DIRECTION('',(-1.,1.225555017542E-16,2.602085153605E-18));
#756 = ( GEOMETRIC_REPRESENTATION_CONTEXT(3) 
GLOBAL_UNCERTAINTY_ASSIGNED_CONTEXT((#760)) GLOBAL_UNIT_ASSIGNED_CONTEXT
((#757,#758,#759)) REPRESENTATION_CONTEXT('Context #1',
  '3D Context with UNIT and UNCERTAINTY') );
#757 = ( LENGTH_UNIT() NAMED_UNIT(*) SI_UNIT(.MILLI.,.METRE.) );
#758 = ( NAMED_UNIT(*) PLANE_ANGLE_UNIT() SI_UNIT($,.RADIAN.) );
#759 = ( NAMED_UNIT(*) SI_UNIT($,.STERADIAN.) SOLID_ANGLE_UNIT() );
#760 = UNCERTAINTY_MEASURE_WITH_UNIT(LENGTH_MEASURE(1.E-07),#757,
  'distance_accuracy_value','confusion accuracy');
#761 = CONTEXT_DEPENDENT_SHAPE_REPRESENTATION(#762,#764);
#762 = ( REPRESENTATION_RELATIONSHIP('','',#395,#10) 
REPRESENTATION_RELATIONSHIP_WITH_TRANSFORMATION(#763) 
SHAPE_REPRESENTATION_RELATIONSHIP() );
#763 = ITEM_DEFINED_TRANSFORMATION('','',#11,#23);
#764 = PRODUCT_DEFINITION_SHAPE('Placement','Placement of an item',#765
  );
#765 = NEXT_ASSEMBLY_USAGE_OCCURRENCE('6',
  'TFT_1.28IN_ROUND_240X240_12P002','',#5,#390,$);
#766 = PRODUCT_RELATED_PRODUCT_CATEGORY('part',$,(#392));
#767 = MECHANICAL_DESIGN_GEOMETRIC_PRESENTATION_REPRESENTATION('',(#768,
    #779,#787,#794,#801,#808,#815),#304);
#768 = STYLED_ITEM('color',(#769),#41);
#769 = PRESENTATION_STYLE_ASSIGNMENT((#770,#776));
#770 = SURFACE_STYLE_USAGE(.BOTH.,#771);
#771 = SURFACE_SIDE_STYLE('',(#772));
#772 = SURFACE_STYLE_FILL_AREA(#773);
#773 = FILL_AREA_STYLE('',(#774));
#774 = FILL_AREA_STYLE_COLOUR('',#775);
#775 = COLOUR_RGB('',0.172549024526,0.172549024526,0.172549024526);
#776 = CURVE_STYLE('',#777,POSITIVE_LENGTH_MEASURE(0.1),#778);
#777 = DRAUGHTING_PRE_DEFINED_CURVE_FONT('continuous');
#778 = COLOUR_RGB('',9.803921802644E-02,9.803921802644E-02,
  9.803921802644E-02);
#779 = OVER_RIDING_STYLED_ITEM('overriding color',(#780),#85,#768);
#780 = PRESENTATION_STYLE_ASSIGNMENT((#781));
#781 = SURFACE_STYLE_USAGE(.BOTH.,#782);
#782 = SURFACE_SIDE_STYLE('',(#783));
#783 = SURFACE_STYLE_FILL_AREA(#784);
#784 = FILL_AREA_STYLE('',(#785));
#785 = FILL_AREA_STYLE_COLOUR('',#786);
#786 = COLOUR_RGB('',0.701960807317,0.701960807317,0.701960807317);
#787 = OVER_RIDING_STYLED_ITEM('overriding color',(#788),#125,#768);
#788 = PRESENTATION_STYLE_ASSIGNMENT((#789));
#789 = SURFACE_STYLE_USAGE(.BOTH.,#790);
#790 = SURFACE_SIDE_STYLE('',(#791));
#791 = SURFACE_STYLE_FILL_AREA(#792);
#792 = FILL_AREA_STYLE('',(#793));
#793 = FILL_AREA_STYLE_COLOUR('',#786);
#794 = OVER_RIDING_STYLED_ITEM('overriding color',(#795),#158,#768);
#795 = PRESENTATION_STYLE_ASSIGNMENT((#796));
#796 = SURFACE_STYLE_USAGE(.BOTH.,#797);
#797 = SURFACE_SIDE_STYLE('',(#798));
#798 = SURFACE_STYLE_FILL_AREA(#799);
#799 = FILL_AREA_STYLE('',(#800));
#800 = FILL_AREA_STYLE_COLOUR('',#786);
#801 = OVER_RIDING_STYLED_ITEM('overriding color',(#802),#189,#768);
#802 = PRESENTATION_STYLE_ASSIGNMENT((#803));
#803 = SURFACE_STYLE_USAGE(.BOTH.,#804);
#804 = SURFACE_SIDE_STYLE('',(#805));
#805 = SURFACE_STYLE_FILL_AREA(#806);
#806 = FILL_AREA_STYLE('',(#807));
#807 = FILL_AREA_STYLE_COLOUR('',#786);
#808 = OVER_RIDING_STYLED_ITEM('overriding color',(#809),#220,#768);
#809 = PRESENTATION_STYLE_ASSIGNMENT((#810));
#810 = SURFACE_STYLE_USAGE(.BOTH.,#811);
#811 = SURFACE_SIDE_STYLE('',(#812));
#812 = SURFACE_STYLE_FILL_AREA(#813);
#813 = FILL_AREA_STYLE('',(#814));
#814 = FILL_AREA_STYLE_COLOUR('',#786);
#815 = OVER_RIDING_STYLED_ITEM('overriding color',(#816),#251,#768);
#816 = PRESENTATION_STYLE_ASSIGNMENT((#817));
#817 = SURFACE_STYLE_USAGE(.BOTH.,#818);
#818 = SURFACE_SIDE_STYLE('',(#819));
#819 = SURFACE_STYLE_FILL_AREA(#820);
#820 = FILL_AREA_STYLE('',(#821));
#821 = FILL_AREA_STYLE_COLOUR('',#786);
#822 = MECHANICAL_DESIGN_GEOMETRIC_PRESENTATION_REPRESENTATION('',(#823)
  ,#377);
#823 = STYLED_ITEM('color',(#824),#323);
#824 = PRESENTATION_STYLE_ASSIGNMENT((#825,#831));
#825 = SURFACE_STYLE_USAGE(.BOTH.,#826);
#826 = SURFACE_SIDE_STYLE('',(#827));
#827 = SURFACE_STYLE_FILL_AREA(#828);
#828 = FILL_AREA_STYLE('',(#829));
#829 = FILL_AREA_STYLE_COLOUR('',#830);
#830 = COLOUR_RGB('',0.300000011149,0.300000011149,0.300000011149);
#831 = CURVE_STYLE('',#832,POSITIVE_LENGTH_MEASURE(0.1),#778);
#832 = DRAUGHTING_PRE_DEFINED_CURVE_FONT('continuous');
#833 = MECHANICAL_DESIGN_GEOMETRIC_PRESENTATION_REPRESENTATION('',(#834)
  ,#756);
#834 = STYLED_ITEM('color',(#835),#396);
#835 = PRESENTATION_STYLE_ASSIGNMENT((#836,#842));
#836 = SURFACE_STYLE_USAGE(.BOTH.,#837);
#837 = SURFACE_SIDE_STYLE('',(#838));
#838 = SURFACE_STYLE_FILL_AREA(#839);
#839 = FILL_AREA_STYLE('',(#840));
#840 = FILL_AREA_STYLE_COLOUR('',#841);
#841 = COLOUR_RGB('',0.784313732475,0.556862780639,2.74509795662E-02);
#842 = CURVE_STYLE('',#843,POSITIVE_LENGTH_MEASURE(0.1),#778);
#843 = DRAUGHTING_PRE_DEFINED_CURVE_FONT('continuous');
ENDSEC;
END-ISO-10303-21;
